P3
40 10
255
255 0 0		255 255 255		255 255 255		255 255 255		255 255 255 	255 0 0		255 255 255		255 255 255		255 255 255		255 0 0		255 255 255		255 255 255		255 255 255		255 255 255		255 255 255		255 255 255		255 255 255		255 255 255		255 255	255		255 255 255		255 255 255		255 255 255		255 255 255		255 255 255		255 255 255 	255 255 255		255 255 255		255 255 255		255 255 255		255 255 255		255 255 255		255 255 255		255 255 255		255 255 255		255 255 255		255 0 0		255 255 255		255 255 255		255 255	255		255 255 255

255 0 0		255 255 255		255 255 255		255 255 255		255 255 255 	255 0 0		255 255 255		255 255 255		255 255 255		255 255 255		255 255 255		255 255 255		255 255 255		255 255 255		255 255 255		255 255 255		255 255 255		255 255 255		255 255	255		255 255 255		255 255 255		255 255 255		255 255 255		255 255 255		255 255 255 	255 255 255		255 255 255		255 255 255		255 255 255		255 255 255		255 255 255		255 255 255		255 255 255		255 255 255		255 0 0		255 0 0		255 0 0		255 255 255		255 255	255		255 255 255

255 255 255		255 255 255		255 255 255		255 255 255		255 255 255 	255 0 0		255 255 255		255 255 255		255 255 255		255 255 255		255 255 255		255 255 255		255 255 255		255 255 255		255 255 255		255 255 255		255 255 255		255 255 255		255 255 255		255 255 255		255 255 255		255 255 255		255 255 255		255 255 255		255 255 255 	255 255 255		255 255 255		255 255 255		255 255 255		255 255 255		255 255 255		255 255 255		255 255 255		255 255 255		255 255 255		255 0 0		255 255 255		255 255 255		255 255	255		255 255 255

255 255 255		255 255 255		255 255 255		255 255 255		255 255 255 	255 0 0		255 255 255		255 255 255		255 255 255		255 0 0		255 255 255		255 255 255		255 255 255		255 255 255		255 255 255		255 255 255		255 0 0		255 255 255		255 255	255		255 255 255		255 255 255		255 255 255		255 255 255		255 255 255		255 255 255 	255 255 255		255 255 255		255 255 255		255 255 255		255 255 255		255 255 255		255 255 255		255 255 255		255 255 255		255 255 255		255 255 255		255 255 255		255 255 255		255 255	255		255 255 255

255 255 255		255 255 255		255 255 255		255 255 255		255 255 255 	255 255 255		255 255 255		255 255 255		255 255 255		255 0 0		255 255 255		255 255 255		255 255 255		255 255 255		255 255 255		255 0 0		255 0 0		255 0 0		255 255	255		255 255 255		255 255 255		255 255 255		255 255 255		255 255 255		255 255 255 	255 255 255		255 255 255		255 255 255		255 255 255		255 255 255		255 255 255		255 255 255		255 255 255		255 255 255		255 255 255		255 255 255		255 255 255		255 255 255		255 255	255		255 255 255

255 0 0		255 255 255		255 255 255		255 255 255		255 255 255 	255 255 255		255 255 255		255 255 255		255 255 255		255 0 0		255 255 255		255 255 255		255 255 255		255 255 255		255 0 0		255 0 0		255 0 0		255 0 0		255 0 0		255 255 255		255 255 255		255 255 255		255 255 255		255 255 255		255 255 255 	255 255 255		255 255 255		255 255 255		255 255 255		255 255 255		255 255 255		255 255 255		255 255 255		255 255 255		255 255 255		255 255 255		255 255 255		255 255 255		255 255	255		255 255 255

255 0 0		255 255 255		255 255 255		255 255 255		255 255 255 	255 0 0		255 255 255		255 255 255		255 255 255		255 0 0		255 255 255		255 255 255		255 255 255		255 255 255		255 255 255		255 0 0		255 0 0		255 0 0		255 255	255		255 255 255		255 255 255		255 255 255		255 255 255		255 255 255		255 255 255 	255 255 255		255 255 255		255 255 255		255 255 255		255 255 255		255 255 255		255 255 255		255 255 255		255 255 255		255 255 255		255 255 255		255 255 255		255 255 255		255 255	255		255 255 255

255 0 0		255 255 255		255 255 255		255 255 255		255 255 255 	255 0 0		255 255 255		255 255 255		255 255 255		255 0 0		255 255 255		255 255 255		255 255 255		255 255 255		255 255 255		255 255 255		255 0 0		255 255 255		255 255	255		255 255 255		255 255 255		255 255 255		255 255 255		255 255 255		255 255 255 	255 255 255		255 255 255		255 255 255		255 255 255		255 255 255		255 255 255		255 255 255		255 255 255		255 255 255		255 255 255		255 0 0		255 255 255		255 255 255		255 255	255		255 255 255

255 0 0		255 255 255		255 255 255		255 255 255		255 255 255 	255 0 0		255 255 255		255 255 255		255 255 255		255 0 0		255 255 255		255 255 255		255 255 255		255 255 255		255 255 255		255 255 255		255 255 255		255 255 255		255 255	255		255 255 255		255 255 255		255 255 255		255 255 255		255 255 255		255 255 255 	255 255 255		255 255 255		255 255 255		255 255 255		255 255 255		255 255 255		255 255 255		255 255 255		255 255 255		255 0 0		255 0 0		255 0 0		255 255 255		255 255	255		255 255 255

255 0 0		255 255 255		255 255 255		255 255 255		255 255 255 	255 0 0		255 255 255		255 255 255		255 255 255		255 0 0		255 255 255		255 255 255		255 255 255		255 255 255		255 255 255		255 255 255		255 255 255		255 255 255		255 255	255		255 255 255		255 255 255		255 255 255		255 255 255		255 255 255		255 255 255 	255 255 255		255 255 255		255 255 255		255 255 255		255 255 255		255 255 255		255 255 255		255 255 255		255 255 255		255 255 255		255 0 0		255 255 255		255 255 255		255 255	255		255 255 255

